<?xml version="1.0" encoding="utf-8"?>
<!-- Generator: Adobe Illustrator 19.0.0, SVG Export Plug-In . SVG Version: 6.00 Build 0)  -->
<svg version="1.1" id="Layer_1" xmlns="http://www.w3.org/2000/svg" xmlns:xlink="http://www.w3.org/1999/xlink" x="0px" y="0px"
	 viewBox="0 15.2 100 70.8" style="enable-background:new 0 15.2 100 70.8;" xml:space="preserve">
<style type="text/css">
	.st0{clip-path:url(#SVGID_2_);fill:#EDF7FC;}
	.st1{clip-path:url(#SVGID_4_);fill:#EDF7FC;}
</style>
<g id="XMLID_57_">
	<g>
		<defs>
			<rect id="SVGID_1_" y="15.2" width="100" height="70.7"/>
		</defs>
		<clipPath id="SVGID_2_">
			<use xlink:href="#SVGID_1_"  style="overflow:visible;"/>
		</clipPath>
		<path id="XMLID_55_" class="st0" d="M54.5,65.4L99.9,20c-0.4-4.5-4.2-4.8-8.9-4.8H9c-0.1,0-0.2,0-0.3,0c-4.5,0.1-8.3,0.4-8.7,4.9
			l45.4,45.3C47.8,67.2,50.9,67.5,54.5,65.4"/>
	</g>
	<g>
		<defs>
			<rect id="SVGID_3_" y="15.2" width="100" height="70.7"/>
		</defs>
		<clipPath id="SVGID_4_">
			<use xlink:href="#SVGID_3_"  style="overflow:visible;"/>
		</clipPath>
		<path id="XMLID_54_" class="st1" d="M43.7,70.4L0,26.7v50.2c0,4.9,4,9,9,9h82c4.9,0,9-4,9-9V26.7L56.2,70.4
			C52.9,73.6,47.6,73.6,43.7,70.4"/>
	</g>
</g>
</svg>
