<?xml version="1.0" encoding="utf-8"?>
<!-- Generator: Adobe Illustrator 19.0.0, SVG Export Plug-In . SVG Version: 6.00 Build 0)  -->
<svg version="1.1" id="Layer_1" xmlns="http://www.w3.org/2000/svg" xmlns:xlink="http://www.w3.org/1999/xlink" x="0px" y="0px"
	 viewBox="-3 5.6 11.8 11.4" style="enable-background:new -3 5.6 11.8 11.4;" xml:space="preserve">
<style type="text/css">
	.st0{fill:#ffffff;}
	.st1{fill:none;}
</style>
<path class="st0" d="M8.2,5.6H-2.3C-2.7,5.6-3,5.9-3,6.2v10.1c0,0.3,0.3,0.6,0.6,0.6h5.6v-4.4H1.8v-1.7h1.5V9.6
	c0-1.5,0.9-2.3,2.3-2.3c0.6,0,1.2,0,1.4,0.1v1.5L6,8.9c-0.7,0-0.9,0.3-0.9,0.8v1.1h1.8l-0.2,1.7H5.2V17h3c0.4,0,0.6-0.3,0.6-0.6V6.2
	C8.8,5.9,8.5,5.6,8.2,5.6z"/>
<rect x="-3" y="5.6" class="st1" width="11.8" height="11.4"/>
</svg>
