<?xml version="1.0" encoding="utf-8"?>
<!-- Generator: Adobe Illustrator 19.0.0, SVG Export Plug-In . SVG Version: 6.00 Build 0)  -->
<svg version="1.1" id="Layer_1" xmlns="http://www.w3.org/2000/svg" xmlns:xlink="http://www.w3.org/1999/xlink" x="0px" y="0px"
	 viewBox="-7 15.2 83.5 70.8" style="enable-background:new -7 15.2 83.5 70.8;" xml:space="preserve">
<style type="text/css">
	.st0{clip-path:url(#SVGID_2_);fill:#EDF7FC;}
	.st1{fill:#EDF7FC;}
	.st2{clip-path:url(#SVGID_4_);fill:#EDF7FC;}
	.st3{clip-path:url(#SVGID_6_);fill:#EDF7FC;}
</style>
<g id="XMLID_78_">
	<g>
		<defs>
			<rect id="SVGID_1_" x="-6.8" y="15.2" width="83.3" height="70.5"/>
		</defs>
		<clipPath id="SVGID_2_">
			<use xlink:href="#SVGID_1_"  style="overflow:visible;"/>
		</clipPath>
		<path id="XMLID_71_" class="st0" d="M76.2,28.1L76.2,28.1L76.2,28.1L51,15.5c-0.2-0.1-0.3-0.1-0.5-0.2c-0.2-0.1-0.5-0.1-0.7-0.1
			c-1,0-1.9,0.5-2.4,1.3L32.9,40l18.2,29.5l25.3-41C76.4,28.4,76.4,28.2,76.2,28.1"/>
	</g>
</g>
<polygon id="XMLID_57_" class="st1" points="24.9,34.7 24.9,61.5 48.7,73.4 "/>
<g id="XMLID_73_">
	<g>
		<defs>
			<rect id="SVGID_3_" x="-6.8" y="15.2" width="83.3" height="70.5"/>
		</defs>
		<clipPath id="SVGID_4_">
			<use xlink:href="#SVGID_3_"  style="overflow:visible;"/>
		</clipPath>
		<path id="XMLID_55_" class="st2" d="M52.3,75.1l19.6,9.8c2.5,1.3,4.6,0.4,4.6-2V35.8L52.3,75.1z"/>
	</g>
	<g>
		<defs>
			<rect id="SVGID_5_" x="-6.8" y="15.2" width="83.3" height="70.5"/>
		</defs>
		<clipPath id="SVGID_6_">
			<use xlink:href="#SVGID_5_"  style="overflow:visible;"/>
		</clipPath>
		<path id="XMLID_54_" class="st3" d="M20.8,28.1L-3.8,15.9c-0.4-0.3-0.8-0.4-1.2-0.4c-1.1,0-1.8,0.8-1.8,2.2v53
			c0,1.4,1,3.1,2.3,3.7l21.6,10.8c0.6,0.3,1.1,0.4,1.6,0.4c1.3,0,2.3-1,2.3-2.8V28.4C20.9,28.3,20.9,28.2,20.8,28.1"/>
	</g>
</g>
</svg>
