<?xml version="1.0" encoding="utf-8"?>
<!-- Generator: Adobe Illustrator 19.0.0, SVG Export Plug-In . SVG Version: 6.00 Build 0)  -->
<svg version="1.1" id="Layer_1" xmlns="http://www.w3.org/2000/svg" xmlns:xlink="http://www.w3.org/1999/xlink" x="0px" y="0px"
	 viewBox="0 0 11.8 11.5" style="enable-background:new 0 0 11.8 11.5;" xml:space="preserve">
<style type="text/css">
	.st0{fill:#14162c;}
	.st1{fill:none;}
</style>
<path id="XMLID_34_" class="st0" d="M5.9,1c1.6,0,1.8,0,2.4,0c0.6,0,0.9,0.1,1.1,0.2C9.6,1.4,9.8,1.5,10,1.7
	c0.2,0.2,0.3,0.4,0.4,0.7c0.1,0.2,0.2,0.5,0.2,1.1c0,0.6,0,0.8,0,2.3c0,1.5,0,1.7,0,2.3c0,0.6-0.1,0.9-0.2,1.1
	c-0.1,0.3-0.2,0.5-0.4,0.7c-0.2,0.2-0.4,0.3-0.7,0.4c-0.2,0.1-0.5,0.2-1.1,0.2c-0.6,0-0.8,0-2.4,0s-1.8,0-2.4,0
	c-0.6,0-0.9-0.1-1.1-0.2C2.1,10.2,1.9,10,1.7,9.8C1.5,9.6,1.4,9.4,1.3,9.2C1.2,9,1.1,8.7,1.1,8.1c0-0.6,0-0.8,0-2.3
	c0-1.5,0-1.7,0-2.3c0-0.6,0.1-0.9,0.2-1.1c0.1-0.3,0.2-0.5,0.4-0.7c0.2-0.2,0.4-0.3,0.7-0.4c0.2-0.1,0.5-0.2,1.1-0.2
	C4.1,1,4.3,1,5.9,1 M5.9,0C4.3,0,4.1,0,3.5,0C2.8,0.1,2.4,0.2,2,0.3C1.6,0.5,1.3,0.6,1,1C0.7,1.3,0.5,1.6,0.3,2
	C0.2,2.4,0.1,2.8,0,3.4C0,4,0,4.2,0,5.8c0,1.6,0,1.8,0,2.4c0,0.6,0.1,1,0.3,1.4c0.2,0.4,0.4,0.7,0.7,1s0.7,0.5,1,0.7
	c0.4,0.1,0.8,0.2,1.4,0.3c0.6,0,0.8,0,2.4,0s1.8,0,2.4,0c0.6,0,1.1-0.1,1.4-0.3c0.4-0.1,0.7-0.3,1-0.7c0.3-0.3,0.5-0.6,0.7-1
	c0.1-0.4,0.2-0.8,0.3-1.4c0-0.6,0-0.8,0-2.4c0-1.6,0-1.8,0-2.4c0-0.6-0.1-1-0.3-1.4c-0.1-0.4-0.4-0.7-0.7-1c-0.3-0.3-0.7-0.5-1-0.7
	C9.4,0.2,8.9,0.1,8.3,0C7.7,0,7.5,0,5.9,0"/>
<path id="XMLID_31_" class="st0" d="M5.9,2.8c-1.7,0-3,1.3-3,3s1.4,3,3,3s3-1.3,3-3S7.5,2.8,5.9,2.8 M5.9,7.7c-1.1,0-2-0.9-2-1.9
	s0.9-1.9,2-1.9s2,0.9,2,1.9S7,7.7,5.9,7.7"/>
<path id="XMLID_30_" class="st0" d="M9.7,2.7c0,0.4-0.3,0.7-0.7,0.7c-0.4,0-0.7-0.3-0.7-0.7C8.3,2.3,8.6,2,9,2
	C9.4,2,9.7,2.3,9.7,2.7"/>
<rect id="XMLID_29_" x="0" y="0" class="st1" width="11.8" height="11.5"/>
</svg>
