<?xml version="1.0" encoding="utf-8"?>
<!-- Generator: Adobe Illustrator 19.0.0, SVG Export Plug-In . SVG Version: 6.00 Build 0)  -->
<svg version="1.1" id="Layer_1" xmlns="http://www.w3.org/2000/svg" xmlns:xlink="http://www.w3.org/1999/xlink" x="0px" y="0px"
	 viewBox="0 0 100 83" style="enable-background:new 0 0 100 83;" xml:space="preserve">
<style type="text/css">
	.st0{fill:#474763;}
</style>
<path id="XMLID_2_" class="st0" d="M31.5,82.8C69.3,82.8,90,51,90,23.3c0-0.9,0-1.8-0.1-2.7c4-3,7.5-6.6,10.3-10.8
	c-3.8,1.7-7.7,2.8-11.8,3.3c4.3-2.6,7.5-6.7,9-11.6c-4,2.4-8.4,4.2-13.1,5.1c-7.8-8.4-20.8-8.8-29.1-0.9c-5.3,5.1-7.6,12.7-5.9,20
	C32.8,24.8,17.4,16.9,7,3.8c-5.5,9.6-2.7,21.8,6.4,27.9c-3.3-0.1-6.5-1-9.3-2.6v0.3c0,10,6.9,18.5,16.5,20.5c-3,0.8-6.2,1-9.3,0.4
	c2.7,8.5,10.4,14.4,19.2,14.5c-7.3,5.8-16.3,9-25.5,9c-1.6,0-3.3-0.1-4.9-0.3C9.4,79.6,20.3,82.8,31.5,82.8"/>
</svg>
