<?xml version="1.0" encoding="utf-8"?>
<!-- Generator: Adobe Illustrator 19.0.0, SVG Export Plug-In . SVG Version: 6.00 Build 0)  -->
<svg version="1.1" id="Layer_1" xmlns="http://www.w3.org/2000/svg" xmlns:xlink="http://www.w3.org/1999/xlink" x="0px" y="0px"
	 viewBox="0 0 83.5 70.8" style="enable-background:new 0 0 83.5 70.8;" xml:space="preserve">
<style type="text/css">
	.st0{clip-path:url(#XMLID_88_);fill:#474763;}
	.st1{fill:#474763;}
	.st2{clip-path:url(#XMLID_89_);fill:#474763;}
</style>
<g id="XMLID_78_">
	<defs>
		<rect id="XMLID_70_" x="0.2" width="83.3" height="70.5"/>
	</defs>
	<clipPath id="XMLID_88_">
		<use xlink:href="#XMLID_70_"  style="overflow:visible;"/>
	</clipPath>
	<path id="XMLID_71_" class="st0" d="M83.2,12.9C83.2,12.9,83.2,12.9,83.2,12.9L83.2,12.9L58,0.3c-0.2-0.1-0.3-0.1-0.5-0.2
		C57.3,0,57,0,56.8,0c-1,0-1.9,0.5-2.4,1.3L39.9,24.8l18.2,29.5l25.3-41C83.4,13.2,83.4,13,83.2,12.9"/>
</g>
<polygon id="XMLID_57_" class="st1" points="31.9,19.5 31.9,46.3 55.7,58.2 "/>
<g id="XMLID_73_">
	<defs>
		<rect id="XMLID_2_" x="0.2" width="83.3" height="70.5"/>
	</defs>
	<clipPath id="XMLID_89_">
		<use xlink:href="#XMLID_2_"  style="overflow:visible;"/>
	</clipPath>
	<path id="XMLID_55_" class="st2" d="M59.3,59.9l19.6,9.8c2.5,1.3,4.6,0.4,4.6-2V20.6L59.3,59.9z"/>
	<path id="XMLID_54_" class="st2" d="M27.8,12.9L3.2,0.7C2.8,0.4,2.4,0.3,2,0.3c-1.1,0-1.8,0.8-1.8,2.2v53c0,1.4,1,3.1,2.3,3.7
		l21.6,10.8c0.6,0.3,1.1,0.4,1.6,0.4c1.3,0,2.3-1,2.3-2.8V13.2C27.9,13.1,27.9,13,27.8,12.9"/>
</g>
</svg>
