<?xml version="1.0" encoding="utf-8"?>
<!-- Generator: Adobe Illustrator 19.0.0, SVG Export Plug-In . SVG Version: 6.00 Build 0)  -->
<svg version="1.1" id="Layer_1" xmlns="http://www.w3.org/2000/svg" xmlns:xlink="http://www.w3.org/1999/xlink" x="0px" y="0px"
	 viewBox="0 0 100 70.8" style="enable-background:new 0 0 100 70.8;" xml:space="preserve">
<style type="text/css">
	.st0{clip-path:url(#XMLID_71_);fill:#474763;}
</style>
<g id="XMLID_57_">
	<defs>
		<rect id="XMLID_2_" y="0" width="100" height="70.7"/>
	</defs>
	<clipPath id="XMLID_71_">
		<use xlink:href="#XMLID_2_"  style="overflow:visible;"/>
	</clipPath>
	<path id="XMLID_55_" class="st0" d="M54.5,50.2L99.9,4.8C99.5,0.3,95.7,0,91,0H9C8.9,0,8.8,0,8.7,0C4.2,0.1,0.4,0.4,0,4.9
		l45.4,45.3C47.8,52,50.9,52.3,54.5,50.2"/>
	<path id="XMLID_54_" class="st0" d="M43.7,55.2L0,11.5v50.2c0,4.9,4,9,9,9h82c4.9,0,9-4,9-9V11.5L56.2,55.2
		C52.9,58.4,47.6,58.4,43.7,55.2"/>
</g>
</svg>
