<?xml version="1.0" encoding="utf-8"?>
<!-- Generator: Adobe Illustrator 19.0.0, SVG Export Plug-In . SVG Version: 6.00 Build 0)  -->
<svg version="1.1" id="Layer_1" xmlns="http://www.w3.org/2000/svg" xmlns:xlink="http://www.w3.org/1999/xlink" x="0px" y="0px"
	 viewBox="0 0 148.3 32.5" style="enable-background:new 0 0 148.3 32.5;" xml:space="preserve">
<style type="text/css">
	.st0{fill:#EDF7FC;}
	.st1{fill:#C7E7F1;}
	.st2{fill:#EEF8FD;}
	.st3{fill:#8E2B27;}
	.st4{fill:#37C0D1;}
	.st5{fill:#EE3829;}
</style>
<g id="XMLID_128_">
	<path id="XMLID_129_" class="st0" d="M38.2,21.4V11.2h1.5c0.3,0,0.5,0.1,0.6,0.5l0.2,0.8c0.2-0.2,0.4-0.4,0.6-0.5
		c0.2-0.2,0.4-0.3,0.6-0.4s0.5-0.2,0.7-0.3C42.7,11,43,11,43.3,11c0.6,0,1.2,0.2,1.6,0.5c0.4,0.3,0.7,0.8,0.9,1.4
		c0.2-0.3,0.4-0.6,0.6-0.9c0.2-0.2,0.5-0.4,0.8-0.6s0.6-0.3,0.9-0.3s0.6-0.1,1-0.1c0.6,0,1.1,0.1,1.5,0.3c0.4,0.2,0.8,0.4,1.1,0.8
		c0.3,0.3,0.5,0.7,0.7,1.2c0.2,0.5,0.2,1,0.2,1.6v6.5h-2.5v-6.5c0-0.7-0.1-1.1-0.4-1.5s-0.7-0.5-1.3-0.5c-0.3,0-0.5,0-0.7,0.1
		c-0.2,0.1-0.4,0.2-0.6,0.4s-0.3,0.4-0.4,0.6c-0.1,0.2-0.1,0.5-0.1,0.8v6.5h-2.5v-6.5c0-0.7-0.1-1.2-0.4-1.5
		c-0.3-0.3-0.7-0.5-1.2-0.5c-0.4,0-0.7,0.1-1,0.3c-0.3,0.2-0.6,0.4-0.9,0.7v7.5H38.2z"/>
	<path id="XMLID_131_" class="st0" d="M63.1,21.4H62c-0.2,0-0.4,0-0.5-0.1c-0.1-0.1-0.2-0.2-0.3-0.4l-0.2-0.7
		c-0.3,0.2-0.5,0.4-0.8,0.6c-0.2,0.2-0.5,0.3-0.8,0.4c-0.3,0.1-0.6,0.2-0.9,0.3c-0.3,0.1-0.6,0.1-1,0.1c-0.4,0-0.8-0.1-1.2-0.2
		s-0.7-0.3-0.9-0.5c-0.3-0.2-0.5-0.5-0.6-0.9c-0.1-0.3-0.2-0.8-0.2-1.2c0-0.4,0.1-0.8,0.3-1.1c0.2-0.4,0.5-0.7,1-1
		c0.5-0.3,1.1-0.6,1.9-0.8c0.8-0.2,1.8-0.3,2.9-0.3V15c0-0.7-0.1-1.2-0.4-1.5c-0.3-0.3-0.7-0.5-1.3-0.5c-0.4,0-0.7,0-1,0.1
		c-0.3,0.1-0.5,0.2-0.7,0.3c-0.2,0.1-0.4,0.2-0.5,0.3c-0.2,0.1-0.3,0.1-0.5,0.1c-0.2,0-0.3,0-0.4-0.1c-0.1-0.1-0.2-0.2-0.3-0.3
		L55,12.6c1.2-1.1,2.6-1.6,4.3-1.6c0.6,0,1.1,0.1,1.6,0.3c0.5,0.2,0.9,0.5,1.2,0.8s0.6,0.8,0.7,1.3s0.3,1,0.3,1.6V21.4z M58.3,19.9
		c0.3,0,0.5,0,0.7-0.1c0.2,0,0.4-0.1,0.6-0.2c0.2-0.1,0.4-0.2,0.5-0.3s0.4-0.3,0.5-0.5v-1.7c-0.7,0-1.3,0-1.8,0.1s-0.9,0.2-1.2,0.3
		c-0.3,0.1-0.5,0.3-0.6,0.5c-0.1,0.2-0.2,0.4-0.2,0.6c0,0.4,0.1,0.7,0.4,0.9C57.5,19.8,57.9,19.9,58.3,19.9z"/>
	<path id="XMLID_134_" class="st0" d="M65.5,24.8V11.2H67c0.2,0,0.3,0,0.4,0.1c0.1,0.1,0.2,0.2,0.2,0.3l0.2,0.9
		c0.4-0.5,0.9-0.9,1.4-1.1c0.5-0.3,1.2-0.4,1.9-0.4c0.6,0,1.1,0.1,1.5,0.4c0.5,0.2,0.9,0.6,1.2,1c0.3,0.4,0.6,1,0.8,1.6
		c0.2,0.7,0.3,1.4,0.3,2.2c0,0.8-0.1,1.5-0.3,2.1c-0.2,0.7-0.5,1.2-0.9,1.7c-0.4,0.5-0.8,0.9-1.4,1.1c-0.5,0.3-1.2,0.4-1.8,0.4
		c-0.6,0-1.1-0.1-1.5-0.3s-0.8-0.4-1.1-0.7v4.2H65.5z M70.3,12.9c-0.5,0-1,0.1-1.3,0.3c-0.4,0.2-0.7,0.5-1,0.9v4.6
		c0.3,0.3,0.6,0.6,0.9,0.7s0.7,0.2,1.1,0.2c0.4,0,0.7-0.1,1-0.2c0.3-0.1,0.6-0.4,0.8-0.6c0.2-0.3,0.4-0.6,0.5-1.1s0.2-1,0.2-1.5
		c0-0.6,0-1.1-0.1-1.5c-0.1-0.4-0.2-0.8-0.4-1c-0.2-0.3-0.4-0.5-0.7-0.6C70.9,13,70.6,12.9,70.3,12.9z"/>
	<path id="XMLID_137_" class="st0" d="M76.8,24.8V11.2h1.5c0.2,0,0.3,0,0.4,0.1c0.1,0.1,0.2,0.2,0.2,0.3l0.2,0.9
		c0.4-0.5,0.9-0.9,1.4-1.1c0.5-0.3,1.2-0.4,1.9-0.4c0.6,0,1.1,0.1,1.5,0.4s0.9,0.6,1.2,1c0.3,0.4,0.6,1,0.8,1.6
		c0.2,0.7,0.3,1.4,0.3,2.2c0,0.8-0.1,1.5-0.3,2.1c-0.2,0.7-0.5,1.2-0.9,1.7c-0.4,0.5-0.8,0.9-1.4,1.1c-0.5,0.3-1.2,0.4-1.8,0.4
		c-0.6,0-1.1-0.1-1.5-0.3c-0.4-0.2-0.8-0.4-1.1-0.7v4.2H76.8z M81.6,12.9c-0.5,0-1,0.1-1.3,0.3s-0.7,0.5-1,0.9v4.6
		c0.3,0.3,0.6,0.6,0.9,0.7s0.7,0.2,1.1,0.2c0.4,0,0.7-0.1,1-0.2c0.3-0.1,0.6-0.4,0.8-0.6c0.2-0.3,0.4-0.6,0.5-1.1s0.2-1,0.2-1.5
		c0-0.6,0-1.1-0.1-1.5c-0.1-0.4-0.2-0.8-0.4-1s-0.4-0.5-0.7-0.6C82.2,13,81.9,12.9,81.6,12.9z"/>
	<path id="XMLID_140_" class="st0" d="M91.1,8.2c0,0.2,0,0.4-0.1,0.6c-0.1,0.2-0.2,0.4-0.3,0.5c-0.1,0.1-0.3,0.3-0.5,0.3
		c-0.2,0.1-0.4,0.1-0.6,0.1c-0.2,0-0.4,0-0.6-0.1c-0.2-0.1-0.4-0.2-0.5-0.3c-0.1-0.1-0.3-0.3-0.3-0.5C88,8.6,88,8.4,88,8.2
		c0-0.2,0-0.4,0.1-0.6c0.1-0.2,0.2-0.4,0.3-0.5s0.3-0.3,0.5-0.3c0.2-0.1,0.4-0.1,0.6-0.1c0.2,0,0.4,0,0.6,0.1
		c0.2,0.1,0.4,0.2,0.5,0.3s0.3,0.3,0.3,0.5C91.1,7.8,91.1,8,91.1,8.2z M90.8,11.2v10.3h-2.5V11.2H90.8z"/>
	<path id="XMLID_143_" class="st0" d="M93.5,21.4V11.2h1.5c0.3,0,0.5,0.1,0.6,0.5l0.2,0.8c0.2-0.2,0.4-0.4,0.7-0.6
		c0.2-0.2,0.5-0.3,0.7-0.5c0.3-0.1,0.5-0.2,0.8-0.3c0.3-0.1,0.6-0.1,1-0.1c0.6,0,1.1,0.1,1.5,0.3c0.4,0.2,0.8,0.5,1.1,0.8
		s0.5,0.8,0.7,1.2c0.1,0.5,0.2,1,0.2,1.6v6.5H100v-6.5c0-0.6-0.1-1.1-0.4-1.5c-0.3-0.3-0.7-0.5-1.3-0.5c-0.4,0-0.8,0.1-1.2,0.3
		c-0.4,0.2-0.7,0.5-1.1,0.8v7.4H93.5z"/>
	<path id="XMLID_145_" class="st0" d="M108.5,11c0.4,0,0.9,0,1.2,0.1c0.4,0.1,0.7,0.2,1.1,0.4h3v0.9c0,0.2,0,0.3-0.1,0.4
		s-0.2,0.1-0.4,0.2l-0.9,0.2c0.1,0.2,0.1,0.4,0.2,0.5c0,0.2,0.1,0.4,0.1,0.6c0,0.5-0.1,1-0.3,1.4c-0.2,0.4-0.5,0.8-0.8,1
		c-0.4,0.3-0.8,0.5-1.3,0.7c-0.5,0.2-1,0.2-1.6,0.2c-0.4,0-0.8,0-1.1-0.1c-0.3,0.2-0.5,0.4-0.5,0.7c0,0.2,0.1,0.4,0.3,0.5
		c0.2,0.1,0.4,0.2,0.8,0.2c0.3,0,0.7,0.1,1.1,0.1c0.4,0,0.8,0,1.2,0.1c0.4,0,0.8,0.1,1.2,0.2c0.4,0.1,0.7,0.2,1.1,0.4
		c0.3,0.2,0.6,0.4,0.8,0.7c0.2,0.3,0.3,0.7,0.3,1.2c0,0.5-0.1,0.9-0.3,1.3c-0.2,0.4-0.5,0.8-1,1.1c-0.4,0.3-0.9,0.6-1.6,0.8
		s-1.3,0.3-2.1,0.3c-0.8,0-1.5-0.1-2-0.2c-0.6-0.1-1-0.3-1.4-0.6c-0.4-0.2-0.7-0.5-0.8-0.9s-0.3-0.7-0.3-1c0-0.5,0.1-0.9,0.4-1.2
		c0.3-0.3,0.7-0.6,1.2-0.8c-0.3-0.1-0.5-0.3-0.6-0.6c-0.2-0.2-0.2-0.5-0.2-0.9c0-0.2,0-0.3,0.1-0.5c0.1-0.2,0.1-0.3,0.2-0.5
		c0.1-0.2,0.2-0.3,0.4-0.5c0.2-0.1,0.4-0.3,0.6-0.4c-0.5-0.3-0.9-0.7-1.2-1.1c-0.3-0.5-0.4-1-0.4-1.6c0-0.5,0.1-1,0.3-1.4
		c0.2-0.4,0.5-0.8,0.8-1s0.8-0.5,1.3-0.7C107.3,11.1,107.9,11,108.5,11z M111.2,21.9c0-0.2-0.1-0.4-0.2-0.5
		c-0.1-0.1-0.3-0.2-0.5-0.3c-0.2-0.1-0.4-0.1-0.7-0.2c-0.3,0-0.6-0.1-0.9-0.1c-0.3,0-0.6,0-1,0s-0.6,0-1-0.1
		c-0.3,0.2-0.5,0.3-0.7,0.5c-0.2,0.2-0.3,0.5-0.3,0.7c0,0.2,0,0.3,0.1,0.5s0.2,0.3,0.4,0.4c0.2,0.1,0.5,0.2,0.8,0.3s0.7,0.1,1.2,0.1
		c0.5,0,0.9,0,1.2-0.1c0.3-0.1,0.6-0.2,0.8-0.3s0.4-0.3,0.5-0.4C111.1,22.3,111.2,22.1,111.2,21.9z M108.5,16.1c0.3,0,0.6,0,0.8-0.1
		c0.2-0.1,0.4-0.2,0.6-0.3c0.1-0.1,0.3-0.3,0.3-0.5c0.1-0.2,0.1-0.4,0.1-0.7c0-0.5-0.2-0.9-0.5-1.2c-0.3-0.3-0.8-0.4-1.4-0.4
		s-1.1,0.1-1.4,0.4c-0.3,0.3-0.5,0.7-0.5,1.2c0,0.2,0,0.5,0.1,0.7c0.1,0.2,0.2,0.4,0.3,0.5c0.2,0.2,0.3,0.3,0.6,0.4
		C107.9,16,108.2,16.1,108.5,16.1z"/>
	<path id="XMLID_149_" class="st0" d="M114.9,14.4h5.2v2.1h-5.2V14.4z"/>
	<path id="XMLID_151_" class="st0" d="M125.1,6.6v14.9h-2.5V6.6H125.1z"/>
	<path id="XMLID_153_" class="st0" d="M135.9,21.4h-1.1c-0.2,0-0.4,0-0.5-0.1c-0.1-0.1-0.2-0.2-0.3-0.4l-0.2-0.7
		c-0.3,0.2-0.5,0.4-0.8,0.6c-0.2,0.2-0.5,0.3-0.8,0.4s-0.5,0.2-0.8,0.3c-0.3,0.1-0.6,0.1-1,0.1c-0.4,0-0.8-0.1-1.2-0.2
		c-0.4-0.1-0.7-0.3-0.9-0.5c-0.3-0.2-0.5-0.5-0.6-0.9c-0.1-0.3-0.2-0.8-0.2-1.2c0-0.4,0.1-0.8,0.3-1.1c0.2-0.4,0.5-0.7,1-1
		c0.5-0.3,1.1-0.6,1.9-0.8c0.8-0.2,1.8-0.3,2.9-0.3V15c0-0.7-0.1-1.2-0.4-1.5c-0.3-0.3-0.7-0.5-1.3-0.5c-0.4,0-0.7,0-1,0.1
		c-0.3,0.1-0.5,0.2-0.7,0.3c-0.2,0.1-0.4,0.2-0.5,0.3c-0.2,0.1-0.3,0.1-0.5,0.1c-0.2,0-0.3,0-0.4-0.1s-0.2-0.2-0.3-0.3l-0.5-0.8
		c1.2-1.1,2.6-1.6,4.3-1.6c0.6,0,1.1,0.1,1.6,0.3c0.5,0.2,0.9,0.5,1.2,0.8c0.3,0.3,0.6,0.8,0.7,1.3c0.2,0.5,0.3,1,0.3,1.6V21.4z
		 M131.1,19.9c0.3,0,0.5,0,0.7-0.1c0.2,0,0.4-0.1,0.6-0.2c0.2-0.1,0.4-0.2,0.5-0.3s0.4-0.3,0.5-0.5v-1.7c-0.7,0-1.3,0-1.8,0.1
		s-0.9,0.2-1.2,0.3c-0.3,0.1-0.5,0.3-0.6,0.5c-0.1,0.2-0.2,0.4-0.2,0.6c0,0.4,0.1,0.7,0.4,0.9C130.4,19.8,130.7,19.9,131.1,19.9z"/>
	<path id="XMLID_156_" class="st0" d="M138.4,21.4V6.6h2.5v5.9c0.4-0.4,0.9-0.8,1.4-1c0.5-0.3,1.1-0.4,1.8-0.4
		c0.6,0,1.1,0.1,1.5,0.3c0.5,0.2,0.9,0.6,1.2,1c0.3,0.4,0.6,1,0.8,1.6c0.2,0.6,0.3,1.4,0.3,2.2c0,0.8-0.1,1.5-0.3,2.1
		c-0.2,0.7-0.5,1.2-0.9,1.7c-0.4,0.5-0.8,0.9-1.4,1.1c-0.5,0.3-1.2,0.4-1.8,0.4c-0.3,0-0.6,0-0.9-0.1c-0.3-0.1-0.5-0.2-0.7-0.3
		c-0.2-0.1-0.4-0.3-0.6-0.4s-0.4-0.3-0.5-0.5l-0.1,0.7c0,0.2-0.1,0.3-0.2,0.4c-0.1,0.1-0.2,0.1-0.4,0.1H138.4z M143.2,12.9
		c-0.5,0-1,0.1-1.3,0.3s-0.7,0.5-1,0.9v4.6c0.3,0.3,0.6,0.6,0.9,0.7s0.7,0.2,1.1,0.2c0.4,0,0.7-0.1,1-0.2c0.3-0.1,0.6-0.4,0.8-0.6
		c0.2-0.3,0.4-0.6,0.5-1.1s0.2-1,0.2-1.5c0-0.6,0-1.1-0.1-1.5c-0.1-0.4-0.2-0.8-0.4-1c-0.2-0.3-0.4-0.5-0.7-0.6
		C143.8,13,143.5,12.9,143.2,12.9z"/>
</g>
<g id="XMLID_119_">
	<path id="XMLID_126_" class="st1" d="M16.6,0.1C7.7,0.1,0.4,7.4,0.4,16.3c0,4.4,1.8,8.4,4.6,11.3L27.7,4.5
		C24.8,1.8,20.9,0.1,16.6,0.1z"/>
	<path id="XMLID_125_" class="st2" d="M27.7,4.5L5.1,27.7c2.9,3,7,4.9,11.6,4.9c8.9,0,16.2-7.3,16.2-16.2
		C32.8,11.7,30.9,7.5,27.7,4.5z"/>
	<g id="XMLID_14_">
		<polygon id="XMLID_124_" class="st3" points="12.7,12.5 22.6,9.7 20,19.8 		"/>
		<polygon id="XMLID_123_" class="st4" points="20,19.8 10.1,22.6 12.7,12.5 		"/>
		<polygon id="XMLID_16_" class="st5" points="22.6,9.7 16.3,16.1 20,19.8 		"/>
		<polygon id="XMLID_15_" class="st1" points="16.3,16.1 10.1,22.6 20,19.8 		"/>
	</g>
</g>
</svg>
