<?xml version="1.0" encoding="utf-8"?>
<!-- Generator: Adobe Illustrator 19.0.0, SVG Export Plug-In . SVG Version: 6.00 Build 0)  -->
<svg version="1.1" id="Layer_1" xmlns="http://www.w3.org/2000/svg" xmlns:xlink="http://www.w3.org/1999/xlink" x="0px" y="0px"
	 viewBox="0 0 466.2 105" style="enable-background:new 0 0 466.2 105;" xml:space="preserve">
<style type="text/css">
	.st0{clip-path:url(#SVGID_2_);fill:#C7E7F1;}
	.st1{clip-path:url(#SVGID_2_);fill:#EEF8FD;}
	.st2{clip-path:url(#SVGID_2_);fill:#8E2B27;}
	.st3{clip-path:url(#SVGID_2_);fill:#37C0D1;}
	.st4{clip-path:url(#SVGID_2_);fill:#EE3829;}
	.st5{clip-path:url(#SVGID_4_);fill:#EDF7FC;}
</style>
<g>
	<defs>
		<rect id="SVGID_1_" x="4.5" y="4.9" width="96.8" height="96.8"/>
	</defs>
	<clipPath id="SVGID_2_">
		<use xlink:href="#SVGID_1_"  style="overflow:visible;"/>
	</clipPath>
	<path class="st0" d="M52.9,4.9C26.2,4.9,4.5,26.6,4.5,53.3c0,13.2,5.3,25.2,13.9,33.9l67.8-69.1C77.4,9.9,65.8,4.9,52.9,4.9"/>
	<path class="st1" d="M86.1,18.1L18.3,87.2c8.8,9,21,14.5,34.6,14.5c26.7,0,48.4-21.7,48.4-48.4C101.3,39.5,95.5,26.9,86.1,18.1"/>
	<polygon class="st2" points="41.1,41.8 70.7,33.6 63,63.7 	"/>
	<polygon class="st3" points="62.9,63.7 33.2,71.9 41,41.8 	"/>
	<polygon class="st4" points="70.7,33.6 51.8,52.6 62.9,63.7 	"/>
	<polygon class="st0" points="51.8,52.6 33.2,71.9 62.9,63.7 	"/>
</g>
<g>
	<defs>
		<rect id="SVGID_3_" width="466.2" height="105"/>
	</defs>
	<clipPath id="SVGID_4_">
		<use xlink:href="#SVGID_3_"  style="overflow:visible;"/>
	</clipPath>
	<path class="st5" d="M447.9,74.8c-1.2-0.4-2.3-1-3.3-1.7c-1-0.7-1.9-1.6-2.6-2.5c-0.7-1-1.2-2-1.3-3.1v-9.9c0.5-1,1.1-2,1.9-3
		c0.7-1,1.6-1.8,2.5-2.5c0.9-0.7,2-1.3,3.1-1.8c1.1-0.4,2.3-0.7,3.6-0.7c1.7,0,3.2,0.4,4.6,1.1c1.4,0.7,2.6,1.7,3.6,2.9
		c1,1.2,1.8,2.6,2.4,4.1c0.6,1.6,0.8,3.2,0.8,4.9c0,1.6-0.3,3.2-0.9,4.7c-0.6,1.5-1.4,2.9-2.5,4.1c-1.1,1.2-2.3,2.2-3.8,2.9
		c-1.5,0.7-3.1,1.1-4.8,1.1C450.2,75.4,449.1,75.2,447.9,74.8 M457.5,76.7c1.7-0.8,3.3-2,4.6-3.4c1.3-1.4,2.3-3,3-4.9
		c0.7-1.9,1.1-3.8,1.1-5.9c0-1.9-0.3-3.8-0.9-5.7c-0.6-1.9-1.5-3.5-2.7-5c-1.2-1.5-2.6-2.7-4.3-3.6c-1.7-0.9-3.6-1.4-5.7-1.4
		c-2.5,0-4.8,0.7-6.7,2c-1.9,1.3-3.6,3-5,5.1V35.4h-2.9v42h2.6v-6c1.2,1.9,2.7,3.5,4.8,4.7c2,1.2,4.2,1.8,6.6,1.8
		C453.9,78,455.8,77.6,457.5,76.7 M411.8,75.1c-0.9-0.4-1.8-0.9-2.4-1.5c-0.7-0.6-1.2-1.4-1.6-2.3c-0.4-0.9-0.6-1.8-0.6-2.8
		c0-1,0.2-1.9,0.7-2.7c0.5-0.8,1.2-1.5,2-2.1c0.9-0.6,1.9-1,3.2-1.4c1.2-0.3,2.6-0.5,4.1-0.5c1.6,0,3.2,0.1,4.7,0.4
		c1.5,0.3,2.9,0.7,4.3,1.2v5.3c0,0.7-0.3,1.5-0.9,2.3c-1,1.4-2.4,2.5-4.3,3.3c-1.9,0.8-3.9,1.3-6.1,1.3
		C413.8,75.7,412.8,75.5,411.8,75.1 M421.2,76.5c2.1-1,3.9-2.3,5.3-4.1v2.5c0.1,0.7,0.3,1.4,0.8,1.9c0.5,0.5,1.1,0.8,1.8,0.8
		c0.2,0,0.3,0,0.5,0c0.2,0,0.4,0,0.6-0.1v-2.6c-0.8,0-1.3-0.5-1.3-1.4V58.7c0-3.7-1-6.6-3.1-8.7c-2.1-2.1-4.9-3.1-8.5-3.1
		c-3.5,0-7.1,1.3-10.9,3.9l1.1,2c1.7-1.2,3.4-2,5-2.7c1.6-0.6,3.2-0.9,4.6-0.9c2.8,0,5,0.8,6.6,2.5c1.6,1.7,2.4,3.9,2.4,6.8v2.9
		c-1.3-0.5-2.8-0.9-4.4-1.2c-1.6-0.3-3.3-0.4-4.9-0.4c-1.8,0-3.5,0.2-5.1,0.7c-1.5,0.4-2.9,1.1-3.9,1.8c-1.1,0.8-2,1.7-2.6,2.8
		c-0.6,1.1-0.9,2.3-0.9,3.6c0,1.3,0.2,2.5,0.7,3.7c0.5,1.1,1.2,2.1,2.1,2.9c0.9,0.8,1.9,1.5,3.1,2c1.2,0.5,2.5,0.7,3.9,0.7
		C416.8,78,419.1,77.5,421.2,76.5 M392.2,72.3c0,1.7,0.5,3,1.5,3.9c1,1,2.3,1.5,3.9,1.5c0.7,0,1.5-0.1,2.5-0.3
		c1-0.2,1.8-0.4,2.4-0.7l-0.6-2.3c-0.5,0.2-1,0.3-1.6,0.4c-0.6,0.1-1.1,0.1-1.5,0.1c-1.1,0-2-0.3-2.6-1c-0.6-0.7-0.9-1.5-0.9-2.7
		V35.4h-2.9V72.3z M383.6,60.4H367v2.7h16.6V60.4z M340.5,74.3c-1.5-0.7-2.7-1.6-3.8-2.8c-1.1-1.2-1.9-2.6-2.5-4.1
		c-0.6-1.5-0.9-3.2-0.9-4.9c0-1.6,0.3-3.1,0.8-4.7c0.5-1.6,1.3-2.9,2.2-4.2s2.2-2.2,3.6-3c1.4-0.8,3-1.2,4.8-1.2
		c1.2,0,2.3,0.2,3.4,0.6c1.1,0.4,2.2,1,3.2,1.6c1,0.7,1.9,1.5,2.6,2.5c0.8,1,1.4,2,1.8,3.2v9.9c-0.2,1-0.5,1.9-1.2,2.9
		c-0.6,1-1.4,1.8-2.4,2.6c-1,0.8-2.1,1.4-3.3,1.9c-1.2,0.5-2.4,0.7-3.7,0.7C343.6,75.4,342,75,340.5,74.3 M350.9,76.1
		c2-1.2,3.7-2.7,4.9-4.7V78c0,1.7-0.3,3.1-0.9,4.3c-0.6,1.2-1.4,2.3-2.4,3.1c-1,0.8-2.2,1.4-3.6,1.9c-1.4,0.4-2.8,0.6-4.3,0.6
		c-2.3,0-4.5-0.5-6.5-1.4c-2-0.9-3.6-2.4-4.8-4.5l-2,1.3c0.6,1,1.3,2,2.2,2.9c0.8,0.9,1.8,1.6,2.8,2.2c1.1,0.6,2.3,1.1,3.7,1.4
		c1.4,0.3,2.9,0.5,4.7,0.5c1.9,0,3.7-0.3,5.4-0.8c1.7-0.5,3.2-1.3,4.5-2.3c1.3-1,2.3-2.3,3.1-3.8c0.8-1.5,1.2-3.3,1.2-5.4V47.5H356
		V54c-1.3-2-3-3.6-4.9-5c-1.9-1.4-4.2-2-6.8-2c-2.1,0-4,0.4-5.7,1.3c-1.7,0.8-3.2,2-4.4,3.4c-1.2,1.4-2.2,3.1-2.9,5
		c-0.7,1.9-1,3.8-1,5.9c0,2,0.4,3.9,1.1,5.7c0.7,1.8,1.7,3.5,2.9,4.9c1.2,1.4,2.7,2.6,4.5,3.5c1.7,0.9,3.6,1.3,5.7,1.3
		C346.7,77.9,348.9,77.3,350.9,76.1 M323.7,60.2c0-4.3-0.7-7.5-2-9.8c-1.3-2.3-3.6-3.4-6.9-3.4c-1.3,0-2.6,0.2-3.9,0.5
		c-1.3,0.4-2.5,0.9-3.6,1.6c-1.1,0.7-2.2,1.5-3.1,2.4c-0.9,0.9-1.7,2-2.3,3.1v-7.1h-2.7v30h2.9V58.9c0.4-1.3,1-2.5,1.8-3.7
		c0.8-1.1,1.7-2.1,2.8-3c1.1-0.8,2.2-1.5,3.5-2c1.2-0.5,2.5-0.7,3.8-0.7c2.4,0,4.1,0.9,5.2,2.7c1.1,1.8,1.6,4.6,1.6,8.5v16.7h2.9
		V60.2z M290.2,35.4h-2.9v5.3h2.9V35.4z M290.2,47.5h-2.9v30h2.9V47.5z M262.6,74.8c-1.1-0.4-2.2-1-3.1-1.7c-1-0.7-1.8-1.6-2.6-2.5
		c-0.8-1-1.4-2-1.9-3.1v-9.8c0.1-1.1,0.5-2.1,1.3-3.1c0.7-1,1.6-1.8,2.6-2.6c1-0.7,2.1-1.3,3.3-1.8c1.2-0.4,2.3-0.7,3.3-0.7
		c1.7,0,3.2,0.4,4.7,1.1c1.5,0.7,2.7,1.7,3.8,2.9c1.1,1.2,1.9,2.6,2.6,4.1c0.6,1.6,0.9,3.2,0.9,4.9c0,1.6-0.3,3.2-0.8,4.8
		c-0.5,1.6-1.3,2.9-2.3,4.1c-1,1.2-2.2,2.2-3.6,2.9c-1.4,0.7-3,1.1-4.7,1.1C264.8,75.4,263.7,75.2,262.6,74.8 M272.3,76.7
		c1.7-0.8,3.1-1.9,4.3-3.4c1.2-1.4,2.1-3.1,2.8-5c0.7-1.9,1-3.9,1-5.9c0-2-0.4-3.9-1.1-5.8c-0.7-1.9-1.7-3.5-3-5
		c-1.3-1.4-2.8-2.6-4.5-3.5c-1.8-0.9-3.7-1.3-5.8-1.3c-2.3,0-4.5,0.6-6.5,1.8c-2,1.2-3.6,2.8-4.9,4.7v-6h-2.6v42.2h2.9V71
		c1.2,2,2.9,3.6,4.9,5c2,1.4,4.3,2,6.9,2C268.7,78,270.6,77.6,272.3,76.7 M227.3,74.8c-1.1-0.4-2.2-1-3.1-1.7
		c-1-0.7-1.8-1.6-2.6-2.5c-0.8-1-1.4-2-1.9-3.1v-9.8c0.1-1.1,0.5-2.1,1.3-3.1c0.7-1,1.6-1.8,2.7-2.6c1-0.7,2.1-1.3,3.3-1.8
		c1.2-0.4,2.3-0.7,3.3-0.7c1.6,0,3.2,0.4,4.7,1.1c1.5,0.7,2.7,1.7,3.8,2.9c1.1,1.2,1.9,2.6,2.6,4.1c0.6,1.6,0.9,3.2,0.9,4.9
		c0,1.6-0.3,3.2-0.8,4.8c-0.5,1.6-1.3,2.9-2.3,4.1c-1,1.2-2.2,2.2-3.6,2.9c-1.4,0.7-3,1.1-4.7,1.1C229.6,75.4,228.4,75.2,227.3,74.8
		 M237,76.7c1.7-0.8,3.1-1.9,4.3-3.4c1.2-1.4,2.1-3.1,2.8-5c0.7-1.9,1-3.9,1-5.9c0-2-0.4-3.9-1.1-5.8c-0.7-1.9-1.7-3.5-3-5
		s-2.8-2.6-4.6-3.5c-1.8-0.9-3.7-1.3-5.8-1.3c-2.3,0-4.5,0.6-6.5,1.8c-2,1.2-3.6,2.8-4.9,4.7v-6h-2.7v42.2h2.9V71
		c1.2,2,2.9,3.6,4.9,5c2,1.4,4.3,2,6.9,2C233.5,78,235.4,77.6,237,76.7 M190.8,75.1c-0.9-0.4-1.8-0.9-2.4-1.5
		c-0.7-0.6-1.2-1.4-1.6-2.3c-0.4-0.9-0.6-1.8-0.6-2.8c0-1,0.2-1.9,0.7-2.7c0.5-0.8,1.2-1.5,2-2.1c0.9-0.6,1.9-1,3.2-1.4
		c1.2-0.3,2.6-0.5,4.1-0.5c1.6,0,3.2,0.1,4.7,0.4c1.5,0.3,2.9,0.7,4.3,1.2v5.3c0,0.7-0.3,1.5-0.9,2.3c-1,1.4-2.4,2.5-4.3,3.3
		c-1.9,0.8-3.9,1.3-6.1,1.3C192.8,75.7,191.8,75.5,190.8,75.1 M200.2,76.5c2.2-1,3.9-2.3,5.3-4.1v2.5c0.1,0.7,0.3,1.4,0.8,1.9
		c0.5,0.5,1.1,0.8,1.8,0.8c0.2,0,0.3,0,0.5,0c0.2,0,0.4,0,0.6-0.1v-2.6c-0.8,0-1.3-0.5-1.3-1.4V58.7c0-3.7-1-6.6-3.1-8.7
		c-2.1-2.1-4.9-3.1-8.5-3.1c-3.5,0-7.1,1.3-10.9,3.9l1.1,2c1.7-1.2,3.4-2,5-2.7c1.6-0.6,3.2-0.9,4.6-0.9c2.8,0,5,0.8,6.6,2.5
		c1.6,1.7,2.4,3.9,2.4,6.8v2.9c-1.3-0.5-2.8-0.9-4.4-1.2c-1.6-0.3-3.3-0.4-4.9-0.4c-1.8,0-3.5,0.2-5.1,0.7c-1.5,0.4-2.9,1.1-3.9,1.8
		c-1.1,0.8-1.9,1.7-2.6,2.8c-0.6,1.1-0.9,2.3-0.9,3.6c0,1.3,0.2,2.5,0.7,3.7c0.5,1.1,1.2,2.1,2.1,2.9c0.9,0.8,1.9,1.5,3.1,2
		c1.2,0.5,2.5,0.7,3.9,0.7C195.8,78,198.1,77.5,200.2,76.5 M176.3,77.4V36.5h-2.9l-17,29.3l-17.1-29.3h-2.9v40.9h2.9V42l16.1,27.6
		h1.8L173.4,42v35.4H176.3z"/>
</g>
</svg>
