<?xml version="1.0" encoding="utf-8"?>
<!-- Generator: Adobe Illustrator 19.0.0, SVG Export Plug-In . SVG Version: 6.00 Build 0)  -->
<svg version="1.1" id="Layer_1" xmlns="http://www.w3.org/2000/svg" xmlns:xlink="http://www.w3.org/1999/xlink" x="0px" y="0px"
	 viewBox="24 34.5 148.3 32.5" style="enable-background:new 24 34.5 148.3 32.5;" xml:space="preserve">
<style type="text/css">
	.st0{fill:#C7E7F1;}
	.st1{fill:#EDF7FC;}
	.st2{fill:#EEF8FD;}
	.st3{fill:#8E2B27;}
	.st4{fill:#37C0D1;}
	.st5{fill:#EE3829;}
</style>
<polygon id="XMLID_1_" class="st0" points="28.6,62 28.9,62.3 51.7,38.9 51.7,38.9 "/>
<g id="XMLID_128_">
	<path id="XMLID_129_" class="st1" d="M65.7,56.4v-9.9h1.5c0.3,0,0.5,0.1,0.6,0.5l0.2,0.8c0.2-0.2,0.4-0.4,0.6-0.5
		c0.2-0.2,0.4-0.3,0.6-0.4c0.2-0.1,0.5-0.2,0.7-0.3c0.3-0.3,0.6-0.3,0.9-0.3c0.6,0,1.2,0.2,1.6,0.5s0.7,0.8,0.9,1.4
		c0.2-0.3,0.4-0.6,0.6-0.9c0.2-0.2,0.5-0.4,0.8-0.6c0.3-0.2,0.6-0.3,0.9-0.3c0.3,0,0.6-0.1,1-0.1c0.6,0,1.1,0.1,1.5,0.3
		s0.8,0.4,1.1,0.8c0.3,0.3,0.5,0.7,0.7,1.2c0.2,0.5,0.2,1,0.2,1.6v6.3h-2.4v-6.3c0-0.7-0.1-1.1-0.4-1.5c-0.3-0.4-0.7-0.5-1.3-0.5
		c-0.3,0-0.5,0-0.7,0.1s-0.4,0.2-0.6,0.4c-0.2,0.2-0.3,0.4-0.4,0.6c-0.1,0.2-0.1,0.5-0.1,0.8v6.3h-2.4V50c0-0.7-0.1-1.2-0.4-1.5
		c-0.3-0.3-0.7-0.5-1.2-0.5c-0.4,0-0.7,0.1-1,0.3c-0.3,0.2-0.6,0.4-0.9,0.7v7.3L65.7,56.4L65.7,56.4z"/>
	<path id="XMLID_131_" class="st1" d="M89.9,56.4h-1.1c-0.2,0-0.4,0-0.5-0.1s-0.2-0.2-0.3-0.4l-0.2-0.7c-0.3,0.2-0.5,0.4-0.8,0.6
		c-0.2,0.2-0.5,0.3-0.8,0.4c-0.3,0.1-0.6,0.2-0.9,0.3s-0.6,0.1-1,0.1s-0.8-0.1-1.2-0.2s-0.7-0.3-0.9-0.5c-0.3-0.2-0.5-0.5-0.6-0.9
		c-0.1-0.3-0.2-0.8-0.2-1.2c0-0.4,0.1-0.8,0.3-1.1c0.2-0.4,0.5-0.7,1-1c0.5-0.3,1.1-0.6,1.8-0.8c0.8-0.2,1.8-0.3,2.8-0.3v-0.6
		c0-0.7-0.1-1.2-0.4-1.5s-0.7-0.5-1.3-0.5c-0.4,0-0.7,0-1,0.1s-0.5,0.2-0.7,0.3s-0.4,0.2-0.5,0.3C83.6,49,83.5,49,83.3,49
		s-0.3,0-0.4-0.1s-0.2-0.2-0.3-0.3l-0.6-0.8c1.2-1.1,2.5-1.6,4.2-1.6c0.6,0,1.1,0.1,1.6,0.3c0.5,0.2,0.9,0.5,1.2,0.8
		c0.3,0.3,0.6,0.8,0.7,1.3c0.1,0.5,0.3,1,0.3,1.6V56.4z M85.3,54.9c0.3,0,0.5,0,0.7-0.1c0.2,0,0.4-0.1,0.6-0.2s0.4-0.2,0.5-0.3
		c0.1-0.1,0.4-0.3,0.5-0.5v-1.7c-0.7,0-1.3,0-1.8,0.1c-0.5,0.1-0.9,0.2-1.2,0.3s-0.5,0.3-0.6,0.5c-0.1,0.2-0.2,0.4-0.2,0.6
		c0,0.4,0.1,0.7,0.4,0.9C84.5,54.8,84.9,54.9,85.3,54.9z"/>
	<path id="XMLID_134_" class="st1" d="M92.3,59.7V46.5h1.5c0.2,0,0.3,0,0.4,0.1c0.1,0.1,0.2,0.2,0.2,0.3l0.2,0.9
		c0.4-0.5,0.9-0.9,1.4-1.1c0.5-0.3,1.2-0.4,1.8-0.4c0.6,0,1.1,0.1,1.5,0.4c0.5,0.2,0.9,0.6,1.2,1c0.3,0.4,0.6,1,0.8,1.6
		c0.2,0.7,0.3,1.4,0.3,2.1c0,0.8-0.1,1.5-0.3,2c-0.2,0.7-0.5,1.2-0.9,1.7c-0.4,0.5-0.8,0.9-1.4,1.1c-0.5,0.3-1.2,0.4-1.8,0.4
		s-1.1-0.1-1.5-0.3c-0.4-0.2-0.8-0.4-1.1-0.7v4.1L92.3,59.7L92.3,59.7z M96.9,48.1c-0.5,0-1,0.1-1.3,0.3c-0.4,0.2-0.7,0.5-1,0.9v4.5
		c0.3,0.3,0.6,0.6,0.9,0.7c0.3,0.1,0.7,0.2,1.1,0.2s0.7-0.1,1-0.2c0.3-0.1,0.6-0.4,0.8-0.6c0.2-0.3,0.4-0.6,0.5-1.1
		c0.1-0.5,0.2-1,0.2-1.5c0-0.6,0-1.1-0.1-1.5c-0.1-0.4-0.2-0.8-0.4-1c-0.2-0.3-0.4-0.5-0.7-0.6C97.5,48.2,97.2,48.1,96.9,48.1z"/>
	<path id="XMLID_137_" class="st1" d="M103.3,59.7V46.5h1.5c0.2,0,0.3,0,0.4,0.1c0.1,0.1,0.2,0.2,0.2,0.3l0.2,0.9
		c0.4-0.5,0.9-0.9,1.4-1.1c0.5-0.3,1.2-0.4,1.8-0.4c0.6,0,1.1,0.1,1.5,0.4c0.4,0.3,0.9,0.6,1.2,1c0.3,0.4,0.6,1,0.8,1.6
		c0.2,0.7,0.3,1.4,0.3,2.1c0,0.8-0.1,1.5-0.3,2c-0.2,0.7-0.5,1.2-0.9,1.7c-0.4,0.5-0.8,0.9-1.4,1.1c-0.5,0.3-1.2,0.4-1.8,0.4
		s-1.1-0.1-1.5-0.3s-0.8-0.4-1.1-0.7v4.1L103.3,59.7L103.3,59.7z M107.9,48.1c-0.5,0-1,0.1-1.3,0.3c-0.3,0.2-0.7,0.5-1,0.9v4.5
		c0.3,0.3,0.6,0.6,0.9,0.7c0.3,0.1,0.7,0.2,1.1,0.2s0.7-0.1,1-0.2c0.3-0.1,0.6-0.4,0.8-0.6c0.2-0.3,0.4-0.6,0.5-1.1
		c0.1-0.5,0.2-1,0.2-1.5c0-0.6,0-1.1-0.1-1.5c-0.1-0.4-0.2-0.8-0.4-1c-0.2-0.2-0.4-0.5-0.7-0.6C108.5,48.2,108.2,48.1,107.9,48.1z"
		/>
	<path id="XMLID_140_" class="st1" d="M117.2,43.5c0,0.2,0,0.4-0.1,0.6c-0.1,0.2-0.2,0.4-0.3,0.5s-0.3,0.3-0.5,0.3
		c-0.2,0.1-0.4,0.1-0.6,0.1c-0.2,0-0.4,0-0.6-0.1c-0.2-0.1-0.4-0.2-0.5-0.3s-0.3-0.3-0.3-0.5c-0.2-0.2-0.2-0.4-0.2-0.6
		s0-0.4,0.1-0.6s0.2-0.4,0.3-0.5s0.3-0.3,0.5-0.3c0.2-0.1,0.4-0.1,0.6-0.1c0.2,0,0.4,0,0.6,0.1c0.2,0.1,0.4,0.2,0.5,0.3
		s0.3,0.3,0.3,0.5C117.2,43.2,117.2,43.3,117.2,43.5z M116.9,46.5v10h-2.4v-10H116.9z"/>
	<path id="XMLID_143_" class="st1" d="M119.5,56.4v-9.9h1.5c0.3,0,0.5,0.1,0.6,0.5l0.2,0.8c0.2-0.2,0.4-0.4,0.7-0.6
		c0.2-0.2,0.5-0.3,0.7-0.5c0.3-0.1,0.5-0.2,0.8-0.3c0.3-0.1,0.6-0.1,1-0.1c0.6,0,1.1,0.1,1.5,0.3s0.8,0.5,1.1,0.8
		c0.3,0.3,0.5,0.8,0.7,1.2c0.1,0.5,0.2,1,0.2,1.6v6.3h-2.4v-6.3c0-0.6-0.1-1.1-0.4-1.5c-0.3-0.3-0.7-0.5-1.3-0.5
		c-0.4,0-0.8,0.1-1.2,0.3c-0.4,0.2-0.7,0.5-1.1,0.8v7.2H119.5z"/>
	<path id="XMLID_145_" class="st1" d="M134.1,46.3c0.4,0,0.9,0,1.2,0.1c0.4,0.1,0.7,0.2,1.1,0.4h2.9v0.9c0,0.2,0,0.3-0.1,0.4
		c-0.1,0.1-0.2,0.1-0.4,0.2l-0.9,0.2c0.1,0.2,0.1,0.4,0.2,0.5c0,0.2,0.1,0.4,0.1,0.6c0,0.5-0.1,1-0.3,1.4c-0.2,0.4-0.5,0.8-0.8,1
		c-0.4,0.3-0.8,0.5-1.3,0.7c-0.5,0.2-1,0.2-1.6,0.2c-0.4,0-0.8,0-1.1-0.1c-0.3,0.2-0.5,0.4-0.5,0.7c0,0.2,0.1,0.4,0.3,0.5
		s0.4,0.2,0.8,0.2c0.3,0,0.7,0.1,1.1,0.1s0.8,0,1.2,0.1c0.4,0,0.8,0.1,1.2,0.2c0.4,0.1,0.7,0.2,1.1,0.4c0.3,0.2,0.6,0.4,0.8,0.7
		s0.3,0.7,0.3,1.2c0,0.5-0.1,0.9-0.3,1.3c-0.2,0.4-0.5,0.8-1,1.1c-0.4,0.3-0.9,0.6-1.6,0.8c-0.7,0.2-1.3,0.3-2,0.3s-1.5-0.1-1.9-0.2
		c-0.6-0.1-1-0.3-1.4-0.6c-0.4-0.2-0.7-0.5-0.8-0.9c-0.1-0.4-0.3-0.7-0.3-1c0-0.5,0.1-0.9,0.4-1.2c0.3-0.3,0.7-0.6,1.2-0.8
		c-0.3-0.1-0.5-0.3-0.6-0.6c-0.2-0.2-0.2-0.5-0.2-0.9c0-0.2,0-0.3,0.1-0.5c0.1-0.2,0.1-0.3,0.2-0.5c0.1-0.2,0.2-0.3,0.4-0.5
		c0.2-0.1,0.4-0.3,0.6-0.4c-0.5-0.3-0.9-0.7-1.2-1.1c-0.3-0.5-0.4-1-0.4-1.6c0-0.5,0.1-1,0.3-1.4c0.2-0.4,0.5-0.8,0.8-1
		c0.3-0.2,0.8-0.5,1.3-0.7C132.9,46.4,133.5,46.3,134.1,46.3z M136.7,56.9c0-0.2-0.1-0.4-0.2-0.5s-0.3-0.2-0.5-0.3
		c-0.2-0.1-0.4-0.1-0.7-0.2c-0.3,0-0.6-0.1-0.9-0.1c-0.3,0-0.6,0-1,0s-0.6,0-1-0.1c-0.3,0.2-0.5,0.3-0.7,0.5
		c-0.2,0.2-0.3,0.5-0.3,0.7s0,0.3,0.1,0.5c0.1,0.2,0.2,0.3,0.4,0.4s0.5,0.2,0.8,0.3c0.3,0.1,0.7,0.1,1.2,0.1c0.5,0,0.9,0,1.2-0.1
		c0.3-0.1,0.6-0.2,0.8-0.3c0.2-0.1,0.4-0.3,0.5-0.4C136.6,57.3,136.7,57.1,136.7,56.9z M134.1,51.2c0.3,0,0.6,0,0.8-0.1
		s0.4-0.2,0.6-0.3c0.1-0.1,0.3-0.3,0.3-0.5c0.1-0.2,0.1-0.4,0.1-0.7c0-0.5-0.2-0.9-0.5-1.2c-0.3-0.3-0.8-0.4-1.4-0.4
		s-1.1,0.1-1.4,0.4c-0.3,0.3-0.5,0.7-0.5,1.2c0,0.2,0,0.5,0.1,0.7c0.1,0.2,0.2,0.4,0.3,0.5c0.2,0.2,0.3,0.3,0.6,0.4
		C133.5,51.1,133.8,51.2,134.1,51.2z"/>
	<path id="XMLID_149_" class="st1" d="M140.3,49.6h5.1v2h-5.1V49.6z"/>
	<path id="XMLID_151_" class="st1" d="M150.3,42v14.5h-2.4V42H150.3z"/>
	<path id="XMLID_153_" class="st1" d="M160.8,56.4h-1.1c-0.2,0-0.4,0-0.5-0.1s-0.2-0.2-0.3-0.4l-0.2-0.7c-0.3,0.2-0.5,0.4-0.8,0.6
		c-0.2,0.2-0.5,0.3-0.8,0.4c-0.3,0.1-0.5,0.2-0.8,0.3c-0.3,0.1-0.6,0.1-1,0.1c-0.4,0-0.8-0.1-1.2-0.2c-0.4-0.1-0.7-0.3-0.9-0.5
		c-0.3-0.2-0.5-0.5-0.6-0.9c-0.1-0.3-0.2-0.8-0.2-1.2c0-0.4,0.1-0.8,0.3-1.1c0.2-0.4,0.5-0.7,1-1c0.5-0.3,1.1-0.6,1.8-0.8
		c0.8-0.2,1.8-0.3,2.8-0.3v-0.6c0-0.7-0.1-1.2-0.4-1.5s-0.7-0.5-1.3-0.5c-0.4,0-0.7,0-1,0.1c-0.3,0.1-0.5,0.2-0.7,0.3
		s-0.4,0.2-0.5,0.3c-0.2,0.1-0.3,0.1-0.5,0.1c-0.2,0-0.3,0-0.4-0.1s-0.2-0.2-0.3-0.3l-0.5-0.8c1.2-1.1,2.5-1.6,4.2-1.6
		c0.6,0,1.1,0.1,1.6,0.3c0.5,0.2,0.9,0.5,1.2,0.8c0.3,0.3,0.6,0.8,0.7,1.3c0.2,0.5,0.3,1,0.3,1.6v6.2H160.8z M156.1,54.9
		c0.3,0,0.5,0,0.7-0.1c0.2,0,0.4-0.1,0.6-0.2s0.4-0.2,0.5-0.3c0.1-0.1,0.4-0.3,0.5-0.5v-1.7c-0.7,0-1.3,0-1.8,0.1
		c-0.5,0.1-0.9,0.2-1.2,0.3s-0.5,0.3-0.6,0.5s-0.2,0.4-0.2,0.6c0,0.4,0.1,0.7,0.4,0.9C155.4,54.8,155.7,54.9,156.1,54.9z"/>
	<path id="XMLID_156_" class="st1" d="M163.2,56.4V42h2.4v5.7c0.4-0.4,0.9-0.8,1.4-1c0.5-0.3,1.1-0.4,1.8-0.4c0.6,0,1.1,0.1,1.5,0.3
		c0.5,0.2,0.9,0.6,1.2,1c0.3,0.4,0.6,1,0.8,1.6c0.2,0.6,0.3,1.4,0.3,2.1c0,0.8-0.1,1.5-0.3,2c-0.2,0.7-0.5,1.2-0.9,1.7
		c-0.4,0.5-0.8,0.9-1.4,1.1c-0.5,0.3-1.2,0.4-1.8,0.4c-0.3,0-0.6,0-0.9-0.1c-0.3-0.1-0.5-0.2-0.7-0.3c-0.2-0.1-0.4-0.3-0.6-0.4
		c-0.2-0.1-0.4-0.3-0.5-0.5l-0.1,0.7c0,0.2-0.1,0.3-0.2,0.4c-0.1,0.1-0.2,0.1-0.4,0.1C164.9,56.4,163.2,56.4,163.2,56.4z
		 M167.9,48.1c-0.5,0-1,0.1-1.3,0.3c-0.3,0.2-0.7,0.5-1,0.9v4.5c0.3,0.3,0.6,0.6,0.9,0.7c0.3,0.1,0.7,0.2,1.1,0.2s0.7-0.1,1-0.2
		c0.3-0.1,0.6-0.4,0.8-0.6c0.2-0.3,0.4-0.6,0.5-1.1c0.1-0.5,0.2-1,0.2-1.5c0-0.6,0-1.1-0.1-1.5c-0.1-0.4-0.2-0.8-0.4-1
		c-0.2-0.3-0.4-0.5-0.7-0.6C168.5,48.2,168.2,48.1,167.9,48.1z"/>
</g>
<g id="XMLID_119_">
	<path id="XMLID_126_" class="st0" d="M40.5,34.5c-9.1,0-16.5,7.3-16.5,16.3c0,4.4,1.8,8.4,4.7,11.4l23-23.2
		C48.8,36.2,44.8,34.5,40.5,34.5z"/>
	<path id="XMLID_125_" class="st2" d="M51.7,38.9l-23,23.2c3,3,7.1,4.9,11.7,4.9c9.1,0,16.5-7.3,16.5-16.3
		C56.9,46.1,54.9,41.9,51.7,38.9z"/>
	<g id="XMLID_14_">
		<polygon id="XMLID_124_" class="st3" points="36.4,46.9 46.5,44.1 43.8,54.2 		"/>
		<polygon id="XMLID_123_" class="st4" points="40.1,50.5 33.8,57 36.4,46.9 		"/>
		<polygon id="XMLID_16_" class="st5" points="46.5,44.1 40.1,50.5 43.8,54.2 		"/>
		<polygon id="XMLID_15_" class="st0" points="40.1,50.5 33.8,57 43.8,54.2 		"/>
	</g>
</g>
</svg>
