<?xml version="1.0" encoding="utf-8"?>
<!-- Generator: Adobe Illustrator 19.0.0, SVG Export Plug-In . SVG Version: 6.00 Build 0)  -->
<svg version="1.1" id="Layer_1" xmlns="http://www.w3.org/2000/svg" xmlns:xlink="http://www.w3.org/1999/xlink" x="0px" y="0px"
	 viewBox="0 0 77.2 54.3" style="enable-background:new 0 0 77.2 54.3;" xml:space="preserve">
<style type="text/css">
	.st0{fill:#14152D;}
</style>
<path id="XMLID_31_" class="st0" d="M39.3,38.2c1.1-1.1,2.5-3,3.4-5.7h-3.4V38.2z M39.3,30.2h4.1c0.2-1.1,0.3-2.2,0.3-3.4
	c0-1.2-0.1-2.3-0.3-3.4h-4.1V30.2z M39.3,21h3.4c-0.9-2.6-2.3-4.4-3.4-5.7V21z M42.8,15.8c0.9,1.4,1.9,3.1,2.5,5.2h3
	C47,18.7,45.1,16.9,42.8,15.8 M45.7,23.4c0.2,1.1,0.2,2.2,0.2,3.4c0,1.2-0.1,2.3-0.2,3.4h3.4c0.3-1.1,0.5-2.2,0.5-3.4
	c0-1.2-0.2-2.3-0.5-3.4H45.7z M48.2,32.5h-3c-0.6,2.1-1.6,3.8-2.5,5.2C45.1,36.6,47,34.8,48.2,32.5 M37,15.4c-1.1,1.1-2.5,3-3.4,5.7
	H37V15.4z M37,23.4h-4.1c-0.2,1.1-0.3,2.2-0.3,3.4c0,1.2,0.1,2.3,0.3,3.4H37V23.4z M37,32.5h-3.4c0.9,2.6,2.3,4.4,3.4,5.7V32.5z
	 M33.6,37.7c-0.9-1.4-1.9-3.1-2.5-5.2h-3C29.3,34.8,31.3,36.6,33.6,37.7 M30.6,30.2c-0.2-1.1-0.2-2.2-0.2-3.4c0-1.2,0.1-2.3,0.2-3.4
	h-3.4c-0.3,1.1-0.5,2.2-0.5,3.4c0,1.2,0.2,2.3,0.5,3.4H30.6z M28.1,21h3c0.6-2.1,1.6-3.8,2.5-5.2C31.3,16.9,29.3,18.7,28.1,21
	 M38.2,10.8c8.5,0,15.4,7.2,15.4,16s-6.9,16-15.4,16s-15.4-7.2-15.4-16S29.6,10.8,38.2,10.8 M77.1,35.3l-5.5-5.7
	c-0.2-0.2-0.2-0.5,0-0.6l3.7-3.8c0.2-0.2,0.2-0.6-0.2-0.7l-15.6-5.5c-0.6-0.2-1.2,0.4-1,1.1l5.3,16.2c0.1,0.3,0.5,0.4,0.7,0.2
	l3.7-3.8c0.2-0.2,0.5-0.2,0.6,0l5.5,5.7c0.2,0.2,0.5,0.2,0.6,0l2.2-2.3C77.2,35.8,77.2,35.5,77.1,35.3 M64.8,54.3H11.5H5.9
	c-3.3,0-5.9-2.7-5.9-6.1v-3.8h4.8h0.3V5.6C5.1,2.5,7.5,0,10.5,0h55.5c3,0,5.4,2.5,5.4,5.6v11.6L64,14.6v-7H12.3v36.9H31v0.4
	c0,1.1,0.9,2.1,2,2.1h10.3c1.1,0,2-1,2-2.1v-0.4h18.7v-2c1.4,0,2.7-0.6,3.7-1.6l0.6-0.6l2.3,2.4c0.2,0.2,0.3,0.3,0.5,0.5v1.5h0.2
	h4.8v3.6c0,3.4-2.7,6.1-5.9,6.1H64.8z"/>
</svg>
