<?xml version="1.0" encoding="utf-8"?>
<!-- Generator: Adobe Illustrator 19.0.0, SVG Export Plug-In . SVG Version: 6.00 Build 0)  -->
<svg version="1.1" id="Layer_1" xmlns="http://www.w3.org/2000/svg" xmlns:xlink="http://www.w3.org/1999/xlink" x="0px" y="0px"
	 viewBox="0 0 55.3 55.3" style="enable-background:new 0 0 55.3 55.3;" xml:space="preserve">
<style type="text/css">
	.st0{fill:#14152D;}
</style>
<path class="st0" d="M35.4,51.9c1.3-2,3.1-5.2,4.6-9.1h8.1C45,47,40.6,50.2,35.4,51.9 M7.2,42.8h8.2c1.5,4,3.3,7.2,4.5,9.1
	C14.8,50.3,10.4,47,7.2,42.8 M19.9,3.5c-1.3,2-3,5.2-4.5,9.1H7.2C10.3,8.3,14.7,5.1,19.9,3.5 M48.1,12.6h-8.2
	c-1.5-4-3.3-7.2-4.5-9.1C40.5,5.1,45,8.3,48.1,12.6 M42.9,26.6c-0.2-4.3-1-8.2-2.2-11.8h8.9c2,3.5,3.3,7.5,3.5,11.8H42.9z
	 M42.9,28.8h10.2c-0.2,4.3-1.4,8.3-3.5,11.8h-8.8C41.9,37,42.8,33,42.9,28.8 M28.8,40.5V28.8h11.8c-0.1,4.3-1,8.3-2.2,11.8H28.8z
	 M28.8,42.8h8.8c-2.1,5.1-4.5,8.8-5.4,9.9c-1.1,0.2-2.2,0.3-3.4,0.4V42.8z M26.6,42.8v10.3c-1.2-0.1-2.3-0.2-3.4-0.4
	c-0.5-0.7-3.1-4.4-5.3-9.9H26.6z M14.7,28.8h11.8v11.8H17C15.8,37.1,14.9,33,14.7,28.8 M12.5,26.6H2.3c0.2-4.3,1.4-8.3,3.5-11.8h8.8
	C13.4,18.3,12.6,22.3,12.5,26.6 M26.6,14.8v11.8H14.7c0.1-4.3,1-8.3,2.2-11.8H26.6z M26.6,12.6h-8.8c2-5.1,4.5-8.7,5.3-9.9
	c1.1-0.2,2.3-0.3,3.5-0.4V12.6z M38.3,14.8c1.2,3.5,2.2,7.5,2.3,11.8H28.8V14.8H38.3z M28.8,12.6V2.3c1.2,0,2.3,0.2,3.4,0.4
	c0.5,0.7,3.1,4.4,5.3,9.9H28.8z M2.3,28.8h10.2c0.2,4.3,1,8.3,2.2,11.8H5.7C3.7,37.1,2.4,33.1,2.3,28.8 M27.7,0
	C12.4,0,0,12.4,0,27.7c0,15.3,12.4,27.7,27.7,27.7c15.3,0,27.7-12.4,27.7-27.7C55.3,12.4,42.9,0,27.7,0"/>
</svg>
